<svg xmlns="http://www.w3.org/2000/svg" width="41" height="41" viewBox="0 0 41 41">
  <g fill="#FFF" opacity=".9" transform="translate(0 1)">
    <path stroke="#FFF" d="M39.287508,25.027938 C38.668812,24.534198 37.797006,24.524682 37.167468,25.005318 C34.390902,27.12645 31.072314,28.247544 27.57027,28.247544 C26.617266,28.247544 26.3084813,28.2916747 25.3774733,28.1225707 C25.0061153,28.0548667 24.6507473,28.3012687 24.5833553,28.6725487 C24.5158853,29.0436727 24.7621313,29.3992747 25.1333333,29.4666667 C26.1446813,29.6504347 26.5356,29.613636 27.570192,29.613636 C31.374564,29.613636 34.979958,28.39551 37.99653,26.091 C38.12679,25.991472 38.307126,25.9935 38.435202,26.095602 C38.5632,26.197782 38.60493,26.373204 38.536836,26.522184 C37.049454,29.774238 34.678176,32.53185 31.679466,34.496748 C28.601898,36.513126 25.02201,37.579074 21.326994,37.579074 C10.89699,37.579074 2.411526,29.09361 2.411526,18.663606 C2.411526,14.968356 3.477396,11.388546 5.493852,8.311212 C7.45875,5.312346 10.216284,2.941146 13.468728,1.453686 C13.617552,1.385514 13.792584,1.4274 13.894764,1.555476 C13.996866,1.683474 13.998972,1.86381 13.899522,1.993914 C11.594934,5.010954 10.376808,8.616348 10.376808,12.420408 C10.376808,16.104348 11.529882,19.619496 13.711464,22.585992 C15.84843,25.491804 18.777564,27.623076 22.182264,28.749318 C22.540674,28.867566 22.926774,28.673346 23.045334,28.315326 C23.163738,27.95715 22.96944,27.57066 22.611342,27.452256 C16.110588,25.30203 11.742978,19.261242 11.742978,12.420486 C11.742978,8.918676 12.86415,5.60001 14.985204,2.82321 C15.465918,2.193906 15.45648,1.322178 14.962428,0.703248 C14.468142,0.083928 13.619658,-0.117858 12.900186,0.211536 C9.413664,1.806012 6.457386,4.348032 4.351152,7.562412 C2.188446,10.862826 1.045356,14.701596 1.045356,18.663606 C1.045356,29.846934 10.143744,38.945244 21.326994,38.945244 C25.28877,38.945244 29.12754,37.802154 32.428266,35.639448 C35.642568,33.533214 38.184666,30.577014 39.779376,27.090414 C40.108614,26.370318 39.906516,25.522224 39.287508,25.027938 Z"/>
    <path d="M19.613412 12.33063C21.22731 12.33063 22.54044 13.643682 22.54044 15.25758 22.54044 15.634788 22.846278 15.940626 23.223486 15.940626 23.600694 15.940626 23.906532 15.634788 23.906532 15.25758 23.906532 13.643682 25.219584 12.33063 26.833482 12.33063 27.21069 12.33063 27.516528 12.024792 27.516528 11.647584 27.516528 11.270376 27.21069 10.964538 26.833482 10.964538 25.219584 10.964538 23.906532 9.651408 23.906532 8.03751 23.906532 7.660302 23.600694 7.354464 23.223486 7.354464 22.846278 7.354464 22.54044 7.660302 22.54044 8.03751 22.54044 9.651408 21.22731 10.964538 19.613412 10.964538 19.236204 10.964538 18.930366 11.270376 18.930366 11.647584 18.930366 12.024792 19.236204 12.33063 19.613412 12.33063zM23.223486 10.358712C23.556312 10.874604 23.996388 11.31468 24.51228 11.647584 23.996388 11.98041 23.55639 12.420486 23.223486 12.936378 22.89066 12.420486 22.450506 11.980488 21.934614 11.647584 22.450506 11.314758 22.89066 10.874604 23.223486 10.358712zM29.281512 21.114288C30.453228 21.114288 31.406544 20.16105 31.406544 18.989412 31.406544 17.817696 30.453228 16.86438 29.281512 16.86438 28.109796 16.86438 27.156558 17.817696 27.156558 18.989412 27.156714 20.16105 28.109874 21.114288 29.281512 21.114288zM29.281512 18.230628C29.699904 18.230628 30.040374 18.57102 30.040374 18.98949 30.040374 19.407804 29.699982 19.748196 29.281512 19.748196 28.863042 19.748196 28.522728 19.407882 28.522728 18.98949 28.522806 18.57102 28.86312 18.230628 29.281512 18.230628zM3.155178 33.599904C1.983462 33.599904 1.030224 34.553142 1.030224 35.724858 1.030224 36.896574 1.983462 37.84989 3.155178 37.84989 4.326894 37.84989 5.280132 36.896574 5.280132 35.724858 5.280132 34.553142 4.326894 33.599904 3.155178 33.599904zM3.155178 36.483642C2.736786 36.483642 2.396394 36.14325 2.396394 35.72478 2.396394 35.30631 2.736786 34.966074 3.155178 34.966074 3.57357 34.966074 3.913962 35.306388 3.913962 35.724858 3.913962 36.14325 3.573648 36.483642 3.155178 36.483642z"/>
    <circle cx="23.223" cy="19.846" r="1"/>
    <circle cx=".856" cy="30.129" r="1"/>
    <circle cx="28.715" cy="6.609" r="1"/>
  </g>
</svg>
