<svg xmlns="http://www.w3.org/2000/svg" width="63" height="45" viewBox="0 0 63 45">
  <g fill="#FFF" opacity=".9">
    <path d="M52 21.5285196C52 18.6555948 50.8333333 16.0036642 48.8888889 14.1252134 47 12.2467626 44.3333333 11.0312945 41.4444444 11.0312945 39.5 11.0312945 37.6111111 11.58378 36 12.5230054 34.8333333 13.2412366 33.7777778 14.180462 32.9444444 15.285433 32.7222222 15.1196874 32.4444444 14.8986932 32.2222222 14.7329475 29.7777778 13.0202424 26.8333333 12.081017 23.7222222 12.081017 20.0555556 12.081017 16.6111111 13.4069822 14 15.6721729 11.6666667 17.6611208 9.94444444 20.4235485 9.16666667 23.572716 6.77777778 23.8489588 4.66666667 24.8986813 3.05555556 26.5008893 1.16666667 28.3793402 0 30.9207736 0 33.7936984 0 36.6113746 1.16666667 39.2080566 3.05555556 41.0865074 4.94444444 42.9649582 7.5 44.1251778 10.3888889 44.1251778L38.3333333 44.1251778C41.6666667 44.0699293 44.6111111 42.7992125 46.7222222 40.644519 48.8333333 38.5450739 50.1666667 35.6169006 50.1666667 32.357236 50.1666667 30.9760222 49.9444444 29.5948083 49.4444444 28.3793402 50.1666667 27.5506119 50.7777778 26.6113865 51.1666667 25.6169125 51.7222222 24.3461958 52 22.9097334 52 21.5285196zM44.5555556 38.8765653C42.9444444 40.4787733 40.7222222 41.4732473 38.2222222 41.4732473L10.5 41.4732473C8.38888889 41.252253 6.55555556 40.4235247 5.16666667 39.0423109 3.83333333 37.7163456 2.94444444 35.8378948 2.94444444 33.7936984 2.94444444 31.7495019 3.77777778 29.8710511 5.16666667 28.5450858 6.5 27.2191205 8.38888889 26.3351437 10.4444444 26.3351437 10.6666667 26.3351437 10.9444444 26.2798951 11.1111111 26.169398 11.4444444 25.9484038 11.6666667 25.6169125 11.7222222 25.2301726 12.1666667 22.3019993 13.6666667 19.7605659 15.7777778 17.9373636 17.8888889 16.1141613 20.6666667 15.0644388 23.6666667 15.0644388 26.1666667 15.0644388 28.5555556 15.8379186 30.5555556 17.2191324 32.1111111 18.2688549 33.4444444 19.7605659 34.3333333 21.473271 34 21.5837681 33.7222222 21.6942652 33.4444444 21.8600109 31.9444444 22.5229935 30.5555556 23.5174675 29.4444444 24.7881842 28.9444444 25.3959183 29 26.2798951 29.5555556 26.7771321 30.1666667 27.2743691 31.0555556 27.2191205 31.5555556 26.666635 32.3888889 25.7274096 33.4444444 24.9539299 34.5555556 24.4566929 35.6666667 23.9594559 36.9444444 23.6832131 38.2222222 23.6832131 40.6666667 23.6832131 42.9444444 24.6776871 44.5555556 26.2798951 46.1666667 27.8821032 47.1666667 30.0920453 47.1666667 32.5782302 47.1666667 35.0644151 46.1666667 37.2743572 44.5555556 38.8765653zM48.6111111 24.4566929C48.4444444 24.8434327 48.2777778 25.1749241 48.0555556 25.5616639 47.6666667 25.0091784 47.2222222 24.5119414 46.7777778 24.069953 44.6666667 21.970508 41.7222222 20.6445427 38.4444444 20.6445427 38.1111111 20.6445427 37.7222222 20.6445427 37.3888889 20.6997913 36.8333333 19.4290745 36.0555556 18.3241035 35.1666667 17.274381 35.7777778 16.3351556 36.6111111 15.5616758 37.5555556 14.9539417 38.7222222 14.2357105 40.1111111 13.8489707 41.5555556 13.8489707 43.6666667 13.8489707 45.6111111 14.677699 47 16.0589128 48.3888889 17.4401266 49.2222222 19.373826 49.2222222 21.473271 49.2222222 22.5229935 49 23.5174675 48.6111111 24.4566929zM56.5754717 6.44280577C56.009434 5.87515768 55.1037736 5.87515768 54.5377358 6.44280577L51.4245283 9.56487023C50.8584906 10.1325183 50.8584906 11.0407553 51.4245283 11.6084033 51.990566 12.1760514 52.8962264 12.1760514 53.4622642 11.6084033L56.5754717 8.48633887C57.1415094 7.91869079 57.1415094 7.01045385 56.5754717 6.44280577zM42 0C41.4615385 0 41 .598597373 41 1.36044858L41 5.60504813C41 6.36689934 41.4615385 7.01991465 42 7.01991465 42.5384615 7.01991465 43 6.36689934 43 5.60504813L43 1.41486652C43 .653015316 42.5384615 0 42 0z"/>
    <path d="M32.5754717 9.56487023L29.4622642 6.44280577C28.9528302 5.87515768 27.990566 5.87515768 27.4245283 6.44280577 26.8584906 7.01045385 26.8584906 7.91869079 27.4245283 8.48633887L30.5377358 11.6084033C31.1037736 12.1760514 32.009434 12.1760514 32.5754717 11.6084033 33.1415094 11.0407553 33.1415094 10.1325183 32.5754717 9.56487023zM61.5891473 20.056899L57.4108527 20.056899C56.6511628 20.056899 56 20.5197505 56 21.059744 56 21.5997374 56.6511628 22.0625889 57.4108527 22.0625889L61.5891473 22.0625889C62.3488372 22.0625889 63 21.5997374 63 21.059744 63 20.4811796 62.3488372 20.056899 61.5891473 20.056899zM56.5754717 34.635994L53.4622642 31.5139295C52.8962264 30.9462814 51.990566 30.9462814 51.4245283 31.5139295 50.8584906 32.0815776 50.8584906 32.9898145 51.4245283 33.5574626L54.5377358 36.6795271C55.1037736 37.2471752 56.009434 37.2471752 56.5754717 36.6795271 57.1415094 36.111879 57.1415094 35.2036421 56.5754717 34.635994z"/>
  </g>
</svg>
