<svg xmlns="http://www.w3.org/2000/svg" width="45" height="45" viewBox="0 0 45 45">
  <path fill="#FFF" d="M7.71426471,22.5 C7.71426471,21.4354412 6.85029412,20.5713971 5.78566176,20.5713971 L1.92860294,20.5713971 C0.863970588,20.5713971 0,21.4354412 0,22.5 C0,23.5646324 0.863970588,24.4286029 1.92860294,24.4286029 L5.78573529,24.4286029 C6.85029412,24.4286029 7.71426471,23.5646324 7.71426471,22.5 Z M9.64286765,33.4286029 C9.11058824,33.4286029 8.62845588,33.6446324 8.27867647,33.9930147 L5.70727941,36.5644853 C5.35882353,36.9141912 5.14286765,37.3963235 5.14286765,37.9286029 C5.14286765,38.9932353 6.00558824,39.8572059 7.07147059,39.8572059 C7.60375,39.8572059 8.08588235,39.6411765 8.43433824,39.2915441 L11.0058088,36.7200735 C11.3555147,36.3716912 11.5715441,35.8895588 11.5715441,35.3572794 C11.5714706,34.2925735 10.70875,33.4286029 9.64286765,33.4286029 Z M22.5,7.71426471 C23.5658824,7.71426471 24.4286029,6.85029412 24.4286029,5.78566176 L24.4286029,1.92860294 C24.4286029,0.863970588 23.5658824,0 22.5,0 C21.4341176,0 20.5713971,0.863970588 20.5713971,1.92860294 L20.5713971,5.78573529 C20.5713971,6.85029412 21.4341176,7.71426471 22.5,7.71426471 Z M35.3571324,11.5714706 C35.8894118,11.5714706 36.3715441,11.3554412 36.7199265,11.0070588 L39.2913971,8.43558824 C39.6411029,8.08588235 39.8570588,7.60375 39.8570588,7.07147059 C39.8570588,6.00691176 38.9944118,5.14286765 37.9284559,5.14286765 C37.39625,5.14286765 36.9140441,5.35889706 36.5643382,5.70860294 L33.9928676,8.28 C33.6444853,8.62845588 33.4284559,9.11058824 33.4284559,9.64286765 C33.4286029,10.7074265 34.29125,11.5714706 35.3571324,11.5714706 Z M8.27867647,11.0069853 C8.62838235,11.3553676 9.11051471,11.5713971 9.64286765,11.5713971 C10.7074265,11.5713971 11.5714706,10.7074265 11.5714706,9.64279412 C11.5714706,9.11051471 11.3554412,8.62838235 11.0070588,8.27867647 L8.43558824,5.70727941 C8.08588235,5.35882353 7.60375,5.14286765 7.07147059,5.14286765 C6.00691176,5.14286765 5.14286765,6.00683824 5.14286765,7.07147059 C5.14286765,7.60375 5.35889706,8.08588235 5.70727941,8.43433824 L8.27867647,11.0069853 Z M43.0713971,20.5713971 L39.2142647,20.5713971 C38.1496324,20.5713971 37.2856618,21.4353676 37.2856618,22.5 C37.2856618,23.5646324 38.1496324,24.4286029 39.2142647,24.4286029 L43.0713971,24.4286029 C44.1360294,24.4286029 45,23.5646324 45,22.5 C45,21.4354412 44.1360294,20.5713971 43.0713971,20.5713971 Z M36.72125,33.9930147 C36.3715441,33.6446324 35.8894853,33.4286029 35.3571324,33.4286029 C34.2925,33.4286029 33.4285294,34.2925735 33.4285294,35.3572059 C33.4285294,35.8894853 33.6445588,36.3716176 33.9929412,36.72 L36.5644118,39.2914706 C36.9141176,39.6411765 37.39625,39.8571324 37.9285294,39.8571324 C38.9931618,39.8571324 39.8571324,38.9931618 39.8571324,37.9285294 C39.8571324,37.3963235 39.6411029,36.9141176 39.2927206,36.5644118 L36.72125,33.9930147 Z M22.5,37.2857353 C21.4341176,37.2857353 20.5713971,38.1497059 20.5713971,39.2143382 L20.5713971,43.0714706 C20.5713971,44.1360294 21.4341176,45 22.5,45 C23.5658824,45 24.4286029,44.1360294 24.4286029,43.0713971 L24.4286029,39.2142647 C24.4286029,38.1497059 23.5658824,37.2857353 22.5,37.2857353 Z M22.5,9 C15.0557353,9 9,15.0557353 9,22.5 C9,29.9442647 15.0557353,36 22.5,36 C29.9442647,36 36,29.9442647 36,22.5 C36,15.0557353 29.9442647,9 22.5,9 Z M22.5,32.1428676 C17.1822794,32.1428676 12.8571324,27.8177941 12.8571324,22.5 C12.8571324,17.1822794 17.1822794,12.8571324 22.5,12.8571324 C27.8177206,12.8571324 32.1428676,17.1822794 32.1428676,22.5 C32.1428676,27.8177206 27.8177206,32.1428676 22.5,32.1428676 Z" opacity=".9"/>
</svg>
